<?xml version="1.0" standalone="no"?>
<!DOCTYPE svg PUBLIC "-//W3C//DTD SVG 20010904//EN"
 "http://www.w3.org/TR/2001/REC-SVG-20010904/DTD/svg10.dtd">
<svg version="1.0" xmlns="http://www.w3.org/2000/svg"
 width="1584.000000pt" height="1584.000000pt" viewBox="0 0 1584.000000 1584.000000"
 preserveAspectRatio="xMidYMid meet">
<metadata>
Created by potrace 1.11, written by Peter Selinger 2001-2013
</metadata>
<g transform="translate(0.000000,1584.000000) scale(0.100000,-0.100000)"
fill="#000000" stroke="none">
<path d="M8900 15802 c-69 -46 -193 -134 -200 -141 -3 -4 -23 -19 -45 -36 -22
-16 -42 -31 -45 -34 -3 -4 -41 -35 -85 -70 -44 -35 -89 -74 -101 -85 -12 -12
-54 -50 -95 -86 -92 -81 -438 -427 -539 -539 -41 -46 -90 -100 -108 -120 -18
-20 -38 -43 -46 -51 -20 -23 -95 -110 -151 -174 -27 -33 -55 -64 -60 -70 -6
-6 -40 -47 -75 -91 -89 -109 -100 -122 -137 -164 -18 -20 -33 -39 -33 -43 0
-5 -8 -16 -17 -26 -10 -10 -31 -36 -48 -57 -16 -20 -41 -52 -55 -69 -32 -40
-74 -95 -136 -176 -26 -36 -53 -70 -59 -77 -5 -7 -37 -48 -70 -93 -33 -45 -77
-103 -97 -130 -21 -27 -38 -54 -38 -59 0 -5 -4 -11 -9 -13 -4 -1 -45 -55 -91
-118 -45 -63 -87 -118 -94 -122 -6 -4 -7 -8 -2 -8 5 0 1 -10 -10 -22 -22 -24
-132 -180 -204 -288 -24 -36 -46 -67 -50 -70 -3 -3 -23 -33 -45 -67 -22 -35
-43 -63 -47 -63 -5 0 -8 -4 -8 -9 0 -5 -74 -120 -164 -255 -91 -135 -162 -246
-158 -246 4 0 2 -4 -4 -8 -6 -4 -72 -104 -147 -222 -75 -118 -141 -220 -147
-227 -5 -7 -10 -15 -10 -19 0 -3 -13 -26 -30 -51 -16 -24 -30 -46 -30 -48 0
-2 -17 -30 -37 -62 -21 -32 -43 -67 -50 -78 -240 -397 -433 -723 -433 -732 0
-3 -8 -17 -18 -31 -17 -25 -45 -74 -98 -172 -11 -19 -22 -36 -26 -38 -5 -2 -8
-12 -8 -23 0 -10 -4 -19 -9 -19 -5 0 -14 -12 -20 -27 -7 -16 -24 -50 -40 -78
-16 -27 -27 -54 -26 -60 3 -13 14 -40 40 -100 13 -28 39 -91 60 -140 46 -112
71 -169 96 -217 10 -21 16 -38 13 -38 -4 0 1 -11 10 -25 22 -33 10 -32 -47 5
-26 16 -50 30 -52 30 -3 0 -29 16 -59 35 -30 19 -60 35 -66 35 -5 0 -10 4 -10
10 0 5 -11 12 -25 16 -14 3 -25 10 -25 15 0 5 -5 9 -11 9 -6 0 -22 9 -36 20
-49 38 -54 32 -112 -148 -30 -92 -59 -178 -64 -192 -6 -14 -11 -29 -13 -35 -1
-5 -21 -64 -43 -130 -23 -66 -43 -127 -45 -135 -2 -8 -38 -116 -80 -240 -43
-124 -79 -232 -81 -241 -1 -8 -24 -75 -49 -149 -47 -137 -47 -148 -9 -173 6
-4 35 -29 64 -55 78 -70 93 -83 145 -127 26 -22 54 -47 63 -56 9 -8 75 -64
146 -124 72 -60 137 -116 146 -124 26 -25 69 -61 73 -61 3 0 23 -18 45 -40 23
-23 41 -38 41 -35 0 4 35 -24 74 -60 6 -6 44 -37 84 -69 39 -32 72 -62 72 -67
0 -5 7 -9 15 -9 7 0 19 -8 24 -17 6 -10 11 -14 11 -10 0 4 10 -2 23 -15 12
-13 42 -39 67 -58 25 -19 47 -37 50 -41 3 -3 43 -37 90 -74 47 -37 90 -73 95
-79 6 -6 18 -15 27 -21 9 -5 72 -55 141 -110 68 -55 141 -113 162 -130 21 -16
43 -34 49 -40 6 -5 40 -32 76 -60 36 -27 70 -54 76 -60 6 -5 22 -17 34 -25 12
-8 30 -22 40 -30 10 -8 30 -24 45 -34 14 -11 35 -27 45 -35 10 -9 28 -23 41
-31 12 -8 30 -22 39 -30 9 -8 24 -19 32 -25 8 -5 35 -25 59 -43 24 -18 55 -41
67 -50 26 -18 91 -67 107 -80 6 -4 33 -23 60 -42 28 -19 52 -37 55 -40 9 -10
245 -174 350 -244 41 -28 77 -52 80 -55 3 -4 14 -11 25 -18 11 -6 63 -39 115
-73 52 -33 102 -65 110 -70 87 -56 413 -230 440 -236 3 0 19 -6 35 -13 94 -40
190 -64 248 -62 54 1 213 27 229 37 4 3 16 7 25 9 10 2 32 9 48 16 17 7 32 13
35 14 43 14 193 87 223 107 15 11 27 16 27 11 0 -4 4 -3 8 2 4 6 16 15 27 21
119 65 135 74 314 191 125 82 107 69 261 181 122 87 174 125 205 150 6 4 62
48 125 96 63 49 124 97 135 107 11 10 61 51 110 91 50 40 95 77 101 83 6 5 32
28 58 50 27 22 63 54 81 70 18 17 58 53 90 80 174 151 579 550 726 715 46 52
89 99 94 105 6 7 24 29 40 50 17 21 35 43 40 49 6 6 26 31 45 56 19 25 37 47
40 50 3 3 26 34 51 70 24 36 47 67 52 68 4 2 7 10 7 18 0 8 5 14 10 14 6 0 10
4 10 9 0 5 17 38 38 72 21 35 44 78 51 94 7 17 20 42 27 56 8 15 15 35 17 45
2 11 10 39 17 64 17 57 16 52 22 70 6 15 32 110 33 120 0 3 7 16 14 29 9 17
10 21 1 16 -9 -6 -9 -3 -2 11 9 17 49 144 73 234 6 19 11 40 13 45 1 6 8 30
15 55 7 25 26 90 42 145 17 55 44 145 60 200 16 55 39 132 51 170 12 39 23 75
24 82 4 22 45 157 60 196 7 20 14 39 14 42 -1 7 30 116 37 135 3 8 7 21 9 28
1 6 14 51 29 100 15 48 35 114 45 147 10 33 32 105 49 160 39 125 42 143 30
151 -6 3 -14 16 -20 27 -12 28 -29 56 -51 81 -10 11 -20 28 -24 38 -3 10 -10
18 -15 18 -5 0 -9 5 -9 10 0 6 -26 50 -57 98 -32 48 -62 95 -68 105 -5 9 -61
96 -122 192 -62 97 -113 180 -113 185 0 6 -4 10 -10 10 -5 0 -10 6 -10 13 0 8
-9 22 -20 32 -11 10 -20 22 -20 27 0 5 -13 29 -30 53 -16 24 -30 48 -30 54 0
6 -4 11 -10 11 -5 0 -10 4 -10 9 0 6 -13 30 -30 54 -16 25 -30 49 -30 55 0 6
-4 12 -8 14 -4 2 -29 39 -56 83 -26 44 -78 130 -116 190 -38 61 -70 116 -70
123 0 6 -5 12 -10 12 -6 0 -14 8 -17 18 -5 14 -105 182 -143 242 -5 8 -19 31
-30 50 -11 19 -34 58 -51 85 -16 28 -33 57 -36 65 -4 8 -9 17 -13 20 -3 3 -24
37 -47 75 -38 66 -52 90 -104 183 -12 20 -25 42 -29 47 -4 6 -28 50 -53 98
l-46 88 -33 -53 c-18 -29 -40 -65 -47 -80 -8 -16 -18 -28 -23 -28 -4 0 -8 -4
-8 -10 0 -5 -58 -110 -128 -232 -70 -123 -146 -257 -168 -298 -21 -41 -43 -78
-49 -82 -7 -5 -7 -8 0 -8 7 0 7 -3 0 -8 -5 -4 -19 -25 -31 -47 -11 -22 -37
-69 -56 -105 -58 -105 -135 -252 -235 -447 -51 -101 -93 -177 -93 -170 0 6 12
55 25 107 14 52 27 104 29 115 2 11 38 157 81 325 42 168 78 312 80 320 2 8
13 53 25 100 44 172 43 170 54 218 2 9 21 82 41 162 20 80 38 152 40 160 2 8
9 35 15 60 7 25 14 54 16 65 1 11 3 21 4 23 3 2 3 5 14 52 4 19 12 49 16 65
21 70 43 162 46 188 2 15 8 35 13 45 4 9 12 35 16 57 10 45 12 54 15 58 1 1 3
11 4 22 2 11 7 32 10 46 5 16 3 29 -3 33 -6 4 -18 22 -27 41 -9 19 -20 35 -25
35 -5 0 -9 4 -9 9 0 9 -128 213 -150 238 -5 7 -10 15 -10 18 0 3 -8 18 -19 33
-43 63 -181 293 -181 302 0 6 -4 10 -9 10 -5 0 -14 15 -22 33 -7 17 -16 34
-19 37 -6 5 -31 46 -73 120 -10 19 -50 89 -88 156 -38 66 -69 125 -69 131 0 6
-4 13 -8 15 -5 2 -42 68 -83 148 -41 80 -77 147 -81 148 -5 2 -8 10 -8 17 0 7
-13 37 -28 66 -35 68 -130 284 -138 314 -1 6 -8 24 -15 40 -7 17 -13 32 -14
35 -10 37 -36 120 -38 119 -1 0 -27 -17 -57 -37z"/>
<path d="M3850 7977 c0 -7 5 -18 12 -25 7 -7 9 -12 5 -12 -4 0 -1 -13 8 -30 8
-16 15 -31 14 -32 0 -2 5 -16 11 -33 7 -16 16 -39 20 -50 4 -11 12 -31 18 -45
5 -14 24 -63 42 -110 18 -47 36 -94 41 -105 5 -11 49 -126 100 -255 50 -129
97 -248 104 -265 7 -16 21 -50 30 -75 9 -25 22 -56 27 -70 6 -14 14 -34 18
-45 5 -11 15 -36 24 -57 9 -20 16 -40 16 -45 1 -4 9 -26 20 -48 11 -22 19 -44
20 -48 0 -4 8 -27 19 -50 10 -23 28 -67 39 -97 11 -30 26 -68 33 -85 7 -16 13
-32 14 -35 0 -3 11 -27 23 -54 12 -27 22 -52 22 -56 0 -4 12 -34 27 -66 15
-33 28 -64 29 -70 1 -6 9 -27 17 -45 8 -19 27 -63 41 -99 15 -36 31 -74 36
-85 5 -11 20 -47 34 -80 35 -85 90 -211 117 -270 13 -27 22 -53 22 -56 -5 -17
64 -61 162 -103 61 -26 119 -52 130 -56 11 -5 45 -19 75 -30 77 -31 90 -36
130 -53 19 -8 62 -24 95 -37 33 -12 101 -38 150 -57 137 -54 243 -94 255 -98
3 -1 22 -9 44 -18 21 -9 42 -17 45 -17 4 0 47 -16 97 -35 49 -19 112 -44 139
-54 28 -10 59 -22 70 -27 11 -4 22 -8 25 -9 3 -1 12 -5 20 -8 8 -4 78 -30 155
-58 77 -29 169 -63 205 -76 120 -45 145 -54 155 -57 6 -2 17 -6 25 -9 69 -28
287 -107 297 -107 7 0 13 -5 13 -12 0 -6 3 -9 6 -5 4 3 23 -1 43 -9 57 -24
152 -56 155 -53 1 2 -784 790 -1746 1752 -961 961 -1748 1741 -1748 1734z"/>
<path d="M10078 6238 c-962 -961 -1744 -1748 -1739 -1748 11 0 242 85 288 106
17 8 35 14 40 14 4 0 80 27 168 61 88 33 167 62 175 64 13 3 255 94 305 115
34 14 59 23 73 26 8 1 28 9 45 17 18 8 75 30 127 50 52 19 104 38 115 42 11 5
25 9 30 11 31 9 81 30 86 37 3 5 8 8 10 7 7 -3 64 13 74 20 6 4 42 19 80 33
64 23 92 34 150 58 11 4 58 22 105 40 47 17 99 37 115 45 17 7 102 42 190 77
88 36 186 77 217 92 53 24 98 68 98 94 0 6 5 11 10 11 6 0 10 6 10 14 0 12 25
72 71 171 15 34 200 479 203 490 1 6 10 27 19 49 9 21 17 40 17 41 0 1 8 20
17 41 9 22 18 44 19 49 2 6 68 174 148 374 80 200 146 370 146 377 0 8 3 14 8
14 4 0 13 19 20 42 7 23 22 61 33 85 10 23 19 49 19 57 0 8 4 17 9 20 5 3 12
18 16 33 3 16 13 42 20 58 29 65 108 271 108 283 0 6 4 12 9 12 4 0 8 8 8 18
0 10 3 22 7 26 4 3 8 12 9 19 2 7 19 54 39 106 20 51 35 94 33 96 -2 1 -789
-785 -1750 -1747z"/>
<path d="M5050 4462 c0 -4 6 -16 13 -27 8 -11 39 -67 69 -125 31 -58 65 -121
77 -140 11 -19 25 -45 30 -57 5 -11 15 -24 20 -28 6 -3 11 -15 11 -26 0 -10 3
-19 8 -19 4 0 18 -21 32 -47 13 -27 27 -50 30 -53 3 -3 14 -23 25 -45 11 -22
24 -44 28 -50 20 -26 97 -158 97 -166 0 -5 3 -9 8 -9 4 0 19 -21 32 -47 14
-26 30 -53 35 -60 6 -7 16 -19 23 -27 6 -8 12 -18 12 -22 0 -3 43 -71 95 -150
52 -79 95 -148 95 -153 0 -5 4 -11 9 -13 5 -1 41 -48 80 -103 95 -136 93 -133
202 -269 94 -118 155 -185 168 -187 3 0 15 -2 26 -4 28 -6 105 -17 135 -21 14
-1 43 -5 65 -9 74 -11 100 -15 150 -20 28 -3 57 -7 65 -10 8 -2 45 -6 82 -10
37 -3 77 -8 90 -10 13 -3 46 -7 73 -9 66 -6 161 -16 210 -22 22 -2 63 -6 90
-8 28 -3 75 -7 105 -10 54 -5 185 -15 285 -22 480 -33 1040 -21 1280 28 28 5
61 11 75 13 14 2 25 4 25 5 0 1 7 3 50 14 11 2 28 7 38 11 9 4 17 5 17 2 0
-15 -395 -150 -437 -150 -7 0 -13 -4 -13 -9 0 -5 -4 -7 -8 -4 -5 3 -26 1 -47
-5 -39 -11 -67 -18 -100 -24 -45 -8 -82 -16 -125 -25 -55 -12 -282 -49 -342
-55 -24 -3 -61 -7 -83 -10 -57 -7 -142 -16 -200 -20 -261 -21 -281 -22 -505
-30 -295 -11 -530 -11 -530 -1 0 5 -6 4 -12 -1 -7 -6 -22 -9 -33 -7 -11 2 -83
6 -160 9 -77 3 -171 7 -208 9 -53 4 -68 2 -64 -8 3 -7 2 -19 -3 -26 -4 -7 -4
-25 0 -41 5 -15 6 -30 2 -33 -3 -4 -5 -32 -3 -64 1 -31 2 -64 2 -72 -3 -84 -2
-120 2 -127 2 -4 1 -17 -3 -28 -4 -11 -4 -32 0 -46 4 -15 4 -32 0 -39 -4 -6
-4 -27 0 -46 4 -18 5 -36 2 -39 -3 -3 -5 -31 -3 -63 1 -31 2 -64 1 -72 -3 -82
2 -92 67 -119 32 -13 72 -29 88 -36 77 -33 105 -44 105 -39 0 3 9 0 21 -7 27
-14 226 -82 304 -103 33 -10 65 -18 70 -20 6 -2 12 -4 15 -4 3 0 18 -5 33 -11
15 -6 40 -13 55 -16 46 -8 65 -13 127 -28 33 -9 74 -18 90 -21 17 -3 41 -7 55
-10 13 -3 42 -8 65 -11 22 -3 51 -8 65 -10 103 -19 442 -27 545 -14 150 20
297 74 390 145 24 19 46 34 49 34 8 0 -43 -73 -57 -82 -7 -4 -9 -8 -5 -8 16 0
-145 -165 -180 -184 -9 -5 -23 -16 -31 -23 -42 -43 -319 -196 -373 -207 -7 -2
-25 -8 -40 -14 -27 -11 -155 -51 -180 -56 -7 -2 -20 -6 -28 -9 -8 -3 -33 -8
-55 -12 -22 -3 -51 -8 -65 -10 -14 -3 -35 -6 -47 -8 -12 -2 -25 -6 -29 -10 -7
-6 192 -279 208 -285 4 -2 8 -7 8 -12 0 -5 56 -83 125 -174 125 -165 126 -165
153 -153 15 6 29 14 32 17 3 3 41 23 85 45 44 21 82 42 85 45 3 4 19 13 35 22
52 27 78 42 168 98 48 30 95 60 105 65 46 27 207 139 210 147 2 4 10 8 17 8 7
0 15 4 17 8 2 5 26 23 53 42 28 19 55 39 62 45 6 5 26 21 44 35 53 40 233 183
245 194 6 6 35 31 64 56 62 52 140 122 219 197 31 29 59 53 64 53 4 0 7 7 7
15 0 8 4 15 9 15 15 0 255 252 371 391 25 29 55 65 67 79 25 27 23 25 73 90
18 25 40 52 47 60 12 13 55 72 129 176 70 97 152 224 146 224 -4 0 -2 4 4 8
13 9 74 109 74 121 0 5 4 11 8 13 4 2 26 35 47 73 42 76 195 381 195 390 0 3
10 27 21 53 12 26 27 61 34 77 22 50 105 284 105 294 0 5 5 22 12 38 6 15 12
33 14 38 2 9 26 96 39 145 21 75 63 276 59 282 -3 4 0 8 6 8 6 0 9 3 7 8 -3 4
-1 32 4 62 13 71 19 114 25 170 2 25 6 61 9 80 2 19 7 87 10 150 4 63 8 127 9
143 1 15 1 27 0 27 -1 0 -30 -19 -65 -42 -83 -56 -220 -138 -230 -138 -4 0 -9
-3 -11 -7 -4 -9 -29 -23 -217 -119 -80 -41 -151 -74 -158 -74 -7 0 -13 -4 -13
-10 0 -5 -3 -9 -7 -8 -5 1 -30 -9 -58 -21 -90 -41 -264 -111 -275 -111 -5 0
-29 -9 -53 -20 -40 -19 -76 -31 -252 -86 -79 -25 -96 -30 -135 -38 -11 -3 -25
-8 -31 -11 -5 -4 -20 -8 -32 -10 -12 -2 -40 -9 -62 -15 -22 -6 -51 -13 -65
-15 -14 -3 -36 -8 -50 -12 -14 -3 -32 -8 -40 -10 -8 -2 -28 -6 -45 -8 -16 -2
-30 -4 -30 -5 0 -3 -50 -14 -140 -29 -139 -24 -184 -31 -226 -35 -19 -2 -59
-7 -89 -10 -227 -28 -591 -37 -835 -21 -55 4 -107 7 -115 7 -8 1 -21 5 -27 11
-9 6 -13 6 -13 -2 0 -7 -4 -10 -9 -7 -4 3 -33 8 -62 11 -30 3 -65 7 -78 10
-13 2 -48 7 -79 11 -57 6 -87 11 -87 14 0 2 -42 8 -90 14 -16 2 -37 6 -45 9
-14 5 -32 9 -100 22 -14 3 -32 6 -40 8 -8 2 -33 7 -55 12 -22 4 -44 10 -50 14
-5 3 -12 6 -15 6 -73 11 -447 129 -508 161 -15 8 -32 14 -38 14 -6 0 -32 9
-58 20 -25 12 -49 21 -53 22 -5 1 -28 11 -53 23 -25 12 -65 31 -89 41 -107 45
-397 197 -456 238 -16 11 -31 20 -33 18 -1 -1 -12 4 -25 12 -223 141 -313 200
-315 207 -2 5 -10 9 -18 9 -8 0 -14 5 -14 10 0 6 -5 10 -11 10 -11 0 -92 60
-97 73 -5 9 -22 9 -22 -1z"/>
</g>
</svg>
